<svg xmlns="http://www.w3.org/2000/svg" viewBox="0 0 533.5 544.3">
  <path fill="#4285F4" d="M533.5 278.4c0-17.4-1.5-34.1-4.3-50.4H272v95.4h147.3c-6.4 34.7-25.7 64.1-54.8 83.7v69.4h88.7c51.8-47.7 80.3-118 80.3-198.1z"/>
  <path fill="#34A853" d="M272 544.3c73.8 0 135.7-24.5 180.9-66.2l-88.7-69.4c-24.6 16.5-56.1 26-92.2 26-70.9 0-131-47.9-152.3-112.2H27.7v70.7C72.7 480 164.6 544.3 272 544.3z"/>
  <path fill="#FBBC04" d="M119.7 322.5c-10.4-30.7-10.4-64 0-94.7V157H27.7c-41.8 82.4-41.8 178.9 0 261.3l92-70z"/>
  <path fill="#EA4335" d="M272 107.7c39.9-.6 78.2 14 107.3 40.8l80-80C431 24.5 362.9-1.4 272 0 164.6 0 72.7 64.3 27.7 157l92 70c21.2-64.3 81.3-112.2 152.3-112.2z"/>
</svg>
